# xmcd
#
# Track frame offsets:
#	150
#	13852
#	26972
#	40512
#	55332
#	68225
#	80885
#	94660
#	107186
#	121496
#
# Disc length: 1806 seconds
# Revision: 0
# Processed by: cddbd v1.5.2PL0 Copyright (c) Steve Scherf et al.
# Submitted via: dBpowerAMP V12.0
#
DISCID=88070c0a
DTITLE=Terri Gibbs - The Best of Terri Gibbs
DYEAR=1982
DGENRE=Country
TTITLE0=Go Somewhere and Hide
TTITLE1=Baby I'm Gone
TTITLE2=I Wanna Be Around
TTITLE3=Anybody Else's Heart But Mine
TTITLE4=Ashes to Ashes
TTITLE5=Mis'ry River
TTITLE6=Somebody's Knockin'
TTITLE7=Tell Mama
TTITLE8=Rich Man
TTITLE9=Some Days It Rains All Night Long
EXTD=
EXTT0=
EXTT1=
EXTT2=
EXTT3=
EXTT4=
EXTT5=
EXTT6=
EXTT7=
EXTT8=
EXTT9=
PLAYORDER=
